<?xml version="1.0" encoding="UTF-8" standalone="no"?>
<svg xmlns="http://www.w3.org/2000/svg" viewBox="0 0 49.5 8.1">
  <path d="M 0.70908108,5.1646502 Q 0.48683179,5.1117337 0.29633239,4.9635675 0.105833,4.8154013 0,4.6778184 L 0.31749899,4.1486535 Q 0.81491408,3.3443227 1.2276628,3.0691569 1.6404114,2.7939911 2.1060766,2.7939911 q 0.4550819,0 0.7725809,0.2645825 0.3280823,0.2539992 0.4656652,0.7090811 0.2434159,-0.4656652 0.634998,-0.7196644 0.4021654,-0.2539992 0.8995804,-0.2539992 1.0371634,0 1.4075789,1.0689133 Q 6.5404792,3.354906 6.9743945,3.0797402 7.4083098,2.7939911 7.9586413,2.7939911 q 0.7514143,0 1.1535797,0.4762485 0.4021654,0.4762485 0.4021654,1.344079 v 1.4710787 q 0,0.6138314 0.1587495,0.8572473 0.1693328,0.2328326 0.4868321,0.2328326 0.148166,0 0.222249,0.1269995 0.08467,0.1269996 0.08467,0.3386656 0,0.1693328 -0.09525,0.3069157 -0.08467,0.1375829 -0.285749,0.1375829 -0.6455817,0 -1.0900803,-0.4339153 Q 8.5513061,7.2072271 8.5513061,6.2018136 V 4.8471512 q 0,-0.5503315 -0.2010827,-0.8466639 -0.2010827,-0.2963324 -0.5714982,-0.2963324 -0.5609148,0 -0.8889971,0.6455813 -0.317499,0.6349979 -0.317499,1.767411 v 1.8203275 q -0.105833,0.03175 -0.2328326,0.052917 -0.1269996,0.021167 -0.2434159,0.021167 -0.2539992,0 -0.4868318,-0.074083 V 4.9953174 q 0,-0.6244146 -0.2222493,-0.9524969 -0.211666,-0.3386656 -0.634998,-0.3386656 -0.3809987,0 -0.6773311,0.3069157 Q 3.7888213,4.307403 3.6194885,4.8577345 3.460739,5.3974828 3.460739,6.1171472 v 1.8203275 q -0.105833,0.03175 -0.2328326,0.052917 -0.1269996,0.021167 -0.2434159,0.021167 -0.2645825,0 -0.4762485,-0.074083 V 4.5614021 q 0,-0.8572472 -0.4868318,-0.8572472 -0.1269996,0 -0.3386656,0.1481662 Q 1.4710787,3.989904 1.1429964,4.4979023 Z m 9.45089692,2.010827 q 0.349249,0 0.677331,-0.3280823 0.338665,-0.3386656 0.571498,-0.8995805 -0.04233,-0.2539992 -0.04233,-0.5185817 0,-0.7619976 0.328082,-1.3546623 0.328082,-0.5926648 0.888997,-0.9313304 0.571498,-0.3492489 1.28058,-0.3492489 0.709081,0 1.269995,0.3492489 0.560915,0.3386656 0.878414,0.9313304 0.328083,0.5926647 0.328083,1.3546623 0,0.7619976 -0.328083,1.3652457 -0.317499,0.603248 -0.878414,0.9524969 -0.550331,0.3386656 -1.269995,0.3386656 -0.645582,0 -1.174747,-0.2751658 -0.518581,-0.2857491 -0.857247,-0.7725808 -0.656165,1.0477466 -1.746244,1.0477466 -0.1375833,0 -0.2222497,-0.1269996 -0.084666,-0.1269996 -0.084666,-0.3280823 0,-0.4550818 0.3809991,-0.4550818 z m 3.693571,0 q 0.677331,0 1.079497,-0.4762485 0.412748,-0.4762485 0.412748,-1.269996 0,-0.3915821 -0.116416,-0.7196644 Q 14.59438,4.6884017 14.075799,4.4555691 13.5678,4.2227366 13.271468,3.8205712 12.848136,4.0004873 12.60472,4.4344025 q -0.243416,0.423332 -0.243416,1.0159968 0,0.7725809 0.402165,1.2488294 0.412749,0.4762485 1.09008,0.4762485 z m 4.921241,0.8360806 q -0.264583,0 -0.476249,-0.074083 V 4.5614021 q 0,-0.8572472 -0.486832,-0.8572472 -0.497415,0 -1.587495,0.7725808 -0.09525,0.0635 -0.201082,0.0635 -0.148166,0 -0.296333,-0.1693327 -0.148166,-0.1693328 -0.148166,-0.3598322 0,-0.1799161 0.179916,-0.2963324 0.751415,-0.4974151 1.21708,-0.7090811 0.465665,-0.211666 0.920747,-0.211666 0.455082,0 0.772581,0.2645825 0.328082,0.2539992 0.465665,0.7090811 0.243416,-0.4656652 0.634998,-0.7196644 0.402165,-0.2539992 0.89958,-0.2539992 1.037164,0 1.407579,1.0689133 0.253999,-0.5079984 0.687915,-0.7831642 0.433915,-0.2857491 0.984246,-0.2857491 0.751415,0 1.15358,0.4762485 0.402166,0.4762485 0.402166,1.344079 v 1.4710787 q 0,0.6138314 0.158749,0.8572473 0.169333,0.2328326 0.486832,0.2328326 0.148166,0 0.222249,0.1269995 0.08467,0.1269996 0.08467,0.3386656 0,0.1693328 -0.09525,0.3069157 -0.08467,0.1375829 -0.285749,0.1375829 -0.645582,0 -1.09008,-0.4339153 -0.444499,-0.4444985 -0.444499,-1.449912 V 4.8471512 q 0,-0.5503315 -0.201082,-0.8466639 -0.201083,-0.2963324 -0.571499,-0.2963324 -0.560914,0 -0.888997,0.6455813 -0.317499,0.6349979 -0.317499,1.767411 v 1.8203275 q -0.105833,0.03175 -0.232832,0.052917 -0.127,0.021167 -0.243416,0.021167 -0.253999,0 -0.486832,-0.074083 V 4.9953174 q 0,-0.6244146 -0.222249,-0.9524969 -0.211666,-0.3386656 -0.634998,-0.3386656 -0.380999,0 -0.677331,0.3069157 -0.28575,0.2963324 -0.455082,0.8466639 -0.15875,0.5397483 -0.15875,1.2594127 v 1.8203275 q -0.105833,0.03175 -0.232832,0.052917 -0.127,0.021167 -0.243416,0.021167 z m 7.101393,0.074083 q -0.137582,0 -0.222249,-0.1269996 -0.08467,-0.1269996 -0.08467,-0.3280823 0,-0.4550818 0.380999,-0.4550818 0.306915,0 0.624414,-0.09525 0.317499,-0.105833 0.740831,-0.3492489 -0.412748,-0.7196644 -0.412748,-1.693328 0,-0.6561646 0.243415,-1.1535796 0.243416,-0.5079984 0.677332,-0.7937475 0.433915,-0.2963324 0.984246,-0.2963324 0.465666,0 0.825498,0.2222493 0.359832,0.211666 0.560915,0.5926648 0.201082,0.3809988 0.201082,0.8784138 0,0.6773312 -0.402165,1.2382461 -0.391582,0.5609149 -1.333496,1.2170795 0.338666,0.2434159 0.910164,0.2434159 0.148166,0 0.232833,0.1269995 0.08467,0.1269996 0.08467,0.3386656 0,0.2010827 -0.09525,0.317499 -0.09525,0.1164163 -0.275165,0.1164163 -0.507999,0 -0.952497,-0.1693328 -0.444499,-0.1693328 -0.740831,-0.4656652 -1.015997,0.634998 -1.947328,0.634998 z m 1.947328,-3.1326567 q 0,0.8360807 0.296332,1.3334958 0.687914,-0.4762485 1.015997,-0.9313304 0.338665,-0.4550819 0.338665,-0.8678306 0,-0.3809987 -0.190499,-0.5926647 Q 29.10409,3.672405 28.776008,3.672405 q -0.412749,0 -0.687915,0.3704155 -0.264582,0.3704154 -0.264582,0.9101637 z m 1.682738,3.1326567 q -0.137582,0 -0.222249,-0.1269996 -0.08467,-0.1269996 -0.08467,-0.3280823 0,-0.211666 0.105833,-0.3280823 0.09525,-0.1164162 0.264582,-0.1164162 0.666748,0 1.18533,-0.4339153 0.518581,-0.4444986 0.941913,-1.375829 l 0.539749,-1.1959128 q 0.349249,-0.7619976 0.719664,-1.0689133 0.370416,-0.317499 0.888997,-0.317499 0.476249,0 0.804331,0.2857491 0.328082,0.2751658 0.455082,0.7514143 0.296332,-0.4974151 0.761997,-0.7619976 0.465666,-0.2751658 1.037164,-0.2751658 0.825497,0 1.269996,0.5397483 0.455082,0.5397483 0.455082,1.5134118 v 1.2382461 q 0,0.6138314 0.158749,0.8572473 0.169333,0.2328326 0.486832,0.2328326 0.148166,0 0.222249,0.1269995 0.08467,0.1269996 0.08467,0.3386656 0,0.1693328 -0.09525,0.3069157 -0.08467,0.1375829 -0.285749,0.1375829 -0.645581,0 -1.09008,-0.4339153 -0.444499,-0.4444985 -0.444499,-1.449912 V 4.8471512 q 0,-1.1429963 -0.89958,-1.1429963 -0.465665,0 -0.825497,0.3704155 -0.349249,0.3704154 -0.550332,1.02658 -0.190499,0.6561646 -0.190499,1.5239952 v 1.3123291 q -0.105833,0.03175 -0.232833,0.052917 -0.127,0.021167 -0.243416,0.021167 -0.253999,0 -0.476248,-0.074083 V 4.5614021 q 0,-0.8572472 -0.486832,-0.8572472 -0.148166,0 -0.306916,0.1481662 -0.158749,0.1481662 -0.402165,0.6984977 l -0.613832,1.375829 Q 31.49591,8.0856409 29.506249,8.0856409 Z M 39.27463,7.1754772 q 0.264583,0 0.603248,-0.1587495 0.349249,-0.1587495 0.677332,-0.5397483 0.328082,-0.3809988 0.539748,-1.0265801 0.211666,-0.6561646 0.211666,-1.6404114 V 2.7939911 H 40.52346 q -0.07408,-0.1693328 -0.07408,-0.423332 0,-0.2539992 0.07408,-0.423332 h 0.783164 V 0.0740831 Q 41.507707,0 41.793456,0 q 0.253999,0 0.486831,0.0740831 v 1.873244 h 1.576912 q 0.08467,0.1693328 0.08467,0.423332 0,0.2539992 -0.08467,0.423332 h -1.576912 v 2.190743 q 0,1.05833 0.317499,1.6298282 0.328083,0.5609149 0.920747,0.5609149 0.306916,0 0.306916,0.4656651 0,0.2010827 -0.105833,0.317499 -0.09525,0.1269996 -0.275166,0.1269996 -0.687914,0 -1.164163,-0.3915821 -0.465665,-0.3915821 -0.687914,-1.0900798 -0.444499,0.7619975 -1.09008,1.1218297 -0.645581,0.3598322 -1.301746,0.3598322 -0.137583,0 -0.222249,-0.1375829 -0.08467,-0.1269996 -0.08467,-0.317499 0,-0.2010827 0.09525,-0.3280823 0.09525,-0.1269995 0.285749,-0.1269995 z m 4.16981,0.9101637 q -0.137583,0 -0.222249,-0.1269996 -0.08467,-0.1269996 -0.08467,-0.3280823 0,-0.4550818 0.380999,-0.4550818 0.338666,0 0.751414,-0.4127487 0.412749,-0.423332 0.963081,-1.3546624 l 1.132413,-1.9155772 q -0.02117,-0.1481662 -0.02117,-0.317499 0,-0.529165 0.190499,-0.7831642 0.201083,-0.2539992 0.328083,-0.3069157 0.179916,-0.042333 0.380998,0.010583 0.211666,0.042333 0.380999,0.1481662 0.169333,0.105833 0.232833,0.2539992 -0.04233,0.1904994 -0.15875,0.4550819 -0.116416,0.2645825 -0.370415,0.7090811 0.07408,0.1164163 0.190499,0.2328326 0.116417,0.1164163 0.285749,0.2539992 L 48.60909,4.804818 q 0.433915,0.3492489 0.645581,0.7302477 0.22225,0.3704155 0.22225,0.8360807 0,0.4868318 -0.243416,0.8784139 -0.243416,0.391582 -0.677331,0.6138313 -0.433916,0.2222493 -1.005414,0.2222493 -0.370415,0 -0.740831,-0.1164163 -0.370415,-0.105833 -0.772581,-0.3492489 -0.02117,-0.5609148 0.423332,-0.8254973 0.582082,0.3809988 1.100663,0.3809988 0.444499,0 0.709081,-0.2328326 0.264583,-0.2434159 0.264583,-0.6138314 0,-0.4656652 -0.507998,-0.8678306 L 47.222678,4.8259846 Q 47.011012,4.6566518 46.841679,4.4767357 l -1.05833,1.7885777 q -0.582081,0.9842469 -1.12183,1.4075788 -0.529165,0.4127487 -1.217079,0.4127487 z" />
</svg>
